<svg width="32" height="29" viewBox="0 0 32 29" fill="none" xmlns="http://www.w3.org/2000/svg">
<path d="M30.7814 24.9718L27.2315 28.2734C26.5836 28.8833 25.526 28.8833 24.8715 28.2734L16.0001 20.0131L7.13533 28.2734C6.48088 28.8833 5.41658 28.8833 4.76874 28.2734L1.21886 24.9718C0.564415 24.3619 0.564415 23.3764 1.21886 22.7665L10.0836 14.5L1.21886 6.23964C0.571027 5.62365 0.571027 4.63191 1.21886 4.03441L4.76874 0.726565C5.41658 0.116739 6.48088 0.116739 7.13533 0.726565L16.0001 8.99309L24.8715 0.726565C25.526 0.116739 26.5903 0.116739 27.2315 0.726565L30.7814 4.02825C31.4358 4.63807 31.4358 5.62981 30.788 6.23964L21.9166 14.5L30.7814 22.7665C31.4358 23.3764 31.4358 24.3619 30.7814 24.9718Z" fill="black"/>
</svg>
