<svg width="36" height="33" viewBox="0 0 36 33" fill="none" xmlns="http://www.w3.org/2000/svg">
<path d="M13.9951 0.61261C10.6522 0.61261 7.30933 1.79764 4.76558 4.16795C-0.321924 8.90858 -0.321924 16.6279 4.76558 21.3685C7.30933 23.7388 10.6438 24.9245 14.0126 24.9245C17.3813 24.9245 20.7158 23.7388 23.2596 21.3685C28.3127 16.6279 28.3122 8.90858 23.2247 4.16795C20.6809 1.79764 17.3381 0.61261 13.9951 0.61261ZM13.9783 2.50258C16.7971 2.50258 19.6157 3.49505 21.747 5.51302C26.0438 9.51692 26.0437 16.0195 21.7812 20.0234C17.4843 24.0273 10.5059 24.0273 6.20906 20.0234C1.91218 16.0195 1.91218 9.51692 6.20906 5.51302C8.34031 3.52708 11.1596 2.50258 13.9783 2.50258ZM13.9783 4.42445C11.6065 4.42445 9.37183 5.28905 7.68745 6.89061C6.07183 8.39608 5.17821 10.3501 5.07509 12.4642C5.04071 13.0087 5.48772 13.425 6.07209 13.457H6.10634C6.65634 13.457 7.10321 13.0405 7.13759 12.528C7.20634 10.8944 7.92781 9.3888 9.13093 8.23567C10.4372 7.01848 12.1565 6.34633 13.9783 6.34633C14.5627 6.34633 15.0096 5.92992 15.0096 5.38539C15.0096 4.84086 14.5627 4.42445 13.9783 4.42445ZM8.0312 16.5C7.7577 16.5 7.49539 16.6012 7.302 16.7814C7.1086 16.9616 6.99995 17.2061 6.99995 17.4609C6.99995 17.7158 7.1086 17.9602 7.302 18.1404C7.49539 18.3206 7.7577 18.4219 8.0312 18.4219C8.30471 18.4219 8.56701 18.3206 8.7604 18.1404C8.9538 17.9602 9.06245 17.7158 9.06245 17.4609C9.06245 17.2061 8.9538 16.9616 8.7604 16.7814C8.56701 16.6012 8.30471 16.5 8.0312 16.5ZM24.6561 21.7851C24.394 21.7851 24.1362 21.8814 23.9471 22.0735C23.5346 22.4579 23.5346 23.0663 23.9471 23.4186L24.8065 24.2194C24.6002 24.6038 24.497 25.0203 24.497 25.4687C24.497 26.2375 24.8062 26.9743 25.3906 27.5189L29.7908 31.5547C30.4096 32.1312 31.1997 32.4193 31.9903 32.4193C32.7809 32.4193 33.5717 32.1311 34.1904 31.5866C35.3936 30.4655 35.3936 28.64 34.1904 27.5189L29.7908 23.4186C29.2065 22.8741 28.4157 22.5859 27.5907 22.5859C27.1095 22.5859 26.6625 22.6821 26.25 22.8743L25.3906 22.0735C25.1843 21.8814 24.9182 21.7851 24.6561 21.7851ZM27.5907 24.4759C27.8657 24.4759 28.1406 24.5721 28.3125 24.7643L32.6778 28.832C33.0903 29.2164 33.0903 29.8247 32.6778 30.1771C32.2653 30.5615 31.6125 30.5615 31.2343 30.1771L26.869 26.1413C26.6627 25.9491 26.5595 25.6931 26.5595 25.4368C26.5595 25.1806 26.6627 24.9245 26.869 24.7643C27.0752 24.5721 27.3157 24.4759 27.5907 24.4759Z" fill="black"/>
</svg>
